<?xml version="1.0" standalone="no"?>
<!DOCTYPE svg PUBLIC "-//W3C//DTD SVG 20010904//EN"
 "http://www.w3.org/TR/2001/REC-SVG-20010904/DTD/svg10.dtd">
<svg version="1.0" xmlns="http://www.w3.org/2000/svg"
 width="512.000000pt" height="512.000000pt" viewBox="0 0 512.000000 512.000000"
 preserveAspectRatio="xMidYMid meet">

<g transform="translate(0.000000,512.000000) scale(0.100000,-0.100000)"
fill="#000000" stroke="none">
<path d="M0 4480 l0 -160 348 0 347 0 560 -1280 560 -1280 1332 0 1333 0 0
160 0 160 -1228 0 -1227 0 -560 1280 -560 1280 -452 0 -453 0 0 -160z"/>
<path d="M1615 3963 c8 -21 152 -380 319 -798 l304 -760 1122 0 1122 0 304
760 c167 418 311 777 319 798 l15 37 -1760 0 -1760 0 15 -37z m2842 -763
l-192 -480 -905 0 -905 0 -192 480 -191 480 1288 0 1288 0 -191 -480z"/>
<path d="M2294 1425 c-89 -19 -160 -59 -231 -131 -188 -187 -187 -481 1 -670
189 -189 483 -189 672 0 188 189 189 483 1 670 -72 73 -142 112 -236 132 -80
17 -127 17 -207 -1z m202 -340 c85 -65 85 -185 0 -250 -72 -55 -168 -41 -224
33 -38 50 -39 133 0 184 56 74 152 88 224 33z"/>
<path d="M3894 1425 c-89 -19 -160 -59 -231 -131 -144 -144 -180 -354 -93
-542 40 -85 137 -182 222 -222 189 -88 398 -51 544 94 188 189 189 483 1 670
-72 73 -142 112 -236 132 -80 17 -127 17 -207 -1z m199 -338 c98 -74 82 -219
-29 -272 -107 -50 -235 43 -221 161 13 121 155 184 250 111z"/>
</g>
</svg>
