<?xml version="1.0" standalone="no"?>
<!DOCTYPE svg PUBLIC "-//W3C//DTD SVG 20010904//EN"
 "http://www.w3.org/TR/2001/REC-SVG-20010904/DTD/svg10.dtd">
<svg version="1.0" xmlns="http://www.w3.org/2000/svg"
 width="512.000000pt" height="512.000000pt" viewBox="0 0 512.000000 512.000000"
 preserveAspectRatio="xMidYMid meet">

<g transform="translate(0.000000,512.000000) scale(0.100000,-0.100000)"
fill="#000000" stroke="none">
<path d="M2384 4304 c-361 -60 -667 -288 -832 -619 -122 -245 -143 -558 -55
-830 69 -215 223 -428 407 -561 l29 -21 -99 -53 c-420 -224 -711 -588 -824
-1030 -25 -97 -50 -265 -50 -337 l0 -53 159 0 158 0 7 87 c47 589 452 1047
1036 1170 117 24 363 24 480 0 584 -123 989 -581 1036 -1170 l7 -87 158 0 159
0 0 53 c0 72 -25 240 -50 337 -113 442 -404 806 -824 1030 l-99 53 29 21 c136
98 255 238 336 394 138 264 163 564 72 854 -106 335 -387 616 -722 722 -172
54 -353 68 -518 40z m323 -319 c327 -62 576 -311 638 -638 82 -433 -203 -849
-638 -932 -433 -82 -849 203 -932 638 -104 550 382 1036 932 932z"/>
</g>
</svg>
