<?xml version="1.0" standalone="no"?>
<!DOCTYPE svg PUBLIC "-//W3C//DTD SVG 20010904//EN"
 "http://www.w3.org/TR/2001/REC-SVG-20010904/DTD/svg10.dtd">
<svg version="1.0" xmlns="http://www.w3.org/2000/svg"
 width="90.000000pt" height="80.000000pt" viewBox="0 0 90.000000 80.000000"
 preserveAspectRatio="xMidYMid meet">

<g transform="translate(0.000000,80.000000) scale(0.100000,-0.100000)"
fill="#000000" stroke="none">
<path d="M773 698 c-9 -12 -123 -509 -123 -536 0 -30 18 1 29 53 11 49 17 58
50 75 40 20 51 47 51 124 0 17 11 68 26 114 23 76 28 85 60 98 18 8 34 19 34
24 0 6 -18 1 -40 -10 -36 -18 -41 -26 -61 -92 -17 -58 -35 -159 -39 -220 0 -4
-13 -14 -30 -23 -23 -12 -30 -12 -30 -3 0 7 20 101 44 208 24 107 43 196 41
198 -1 1 -6 -3 -12 -10z"/>
<path d="M22 666 c-17 -38 -16 -57 26 -300 37 -211 57 -272 64 -190 3 37 4 38
63 53 l60 16 11 55 c9 44 26 76 86 158 l76 102 6 -32 c3 -18 6 -72 7 -120 l2
-87 -48 -56 c-26 -30 -46 -58 -43 -60 3 -3 22 17 44 45 21 27 42 49 47 50 4 0
8 -31 8 -70 1 -38 3 -74 4 -80 1 -5 3 -24 4 -41 1 -20 5 -28 12 -23 9 5 10 42
5 130 l-7 122 33 39 c18 21 34 40 35 42 12 17 10 -25 -6 -160 -11 -84 -17
-156 -15 -158 13 -14 26 33 54 204 l33 190 42 50 c59 71 66 90 11 30 l-46 -50
5 35 c3 19 9 56 14 83 8 45 7 47 -15 47 -12 0 -26 -4 -29 -10 -3 -5 -12 -59
-19 -119 -13 -104 -16 -112 -52 -155 -21 -25 -40 -43 -43 -41 -2 3 -8 56 -12
117 -7 108 -7 113 17 143 20 26 22 34 11 48 -10 14 -24 -2 -102 -123 -49 -76
-93 -139 -96 -139 -4 -1 -3 18 2 42 4 23 8 49 8 57 1 12 -150 -243 -163 -275
-8 -24 -16 12 -41 205 -14 113 -29 216 -33 229 l-8 23 -12 -26z"/>
<path d="M651 333 c-38 -153 -45 -171 -71 -188 -36 -24 -31 -30 13 -16 l34 11
36 177 c20 97 35 178 33 180 -2 2 -22 -72 -45 -164z"/>
</g>
</svg>
